<?xml version="1.0" encoding="UTF-8" standalone="no"?>
<!DOCTYPE svg PUBLIC "-//W3C//DTD SVG 1.1//EN" "http://www.w3.org/Graphics/SVG/1.1/DTD/svg11.dtd">
<svg width="100%" height="100%" viewBox="0 0 900 900" version="1.1" xmlns="http://www.w3.org/2000/svg" xmlns:xlink="http://www.w3.org/1999/xlink" xml:space="preserve" xmlns:serif="http://www.serif.com/" style="fill-rule:evenodd;clip-rule:evenodd;stroke-linejoin:round;stroke-miterlimit:2;">
    <path d="M456.933,900L900,900L900,0.971L0,0.971L0,900L443.067,900L443.067,900.971L456.933,900.971L456.933,900ZM263.541,451.381C264.198,453.434 266.124,454.922 268.394,454.922C270.664,454.922 272.589,453.434 273.246,451.381L308.767,451.381C309.424,453.434 311.349,454.922 313.619,454.922C315.889,454.922 317.814,453.434 318.471,451.381L354.316,451.381C354.973,453.434 356.898,454.922 359.168,454.922C361.438,454.922 363.363,453.434 364.02,451.381L399.542,451.381C400.199,453.434 402.124,454.922 404.394,454.922C406.664,454.922 408.589,453.434 409.246,451.381L448.707,451.381L448.707,490.493C446.521,491.066 444.907,493.056 444.907,495.421C444.907,497.785 446.521,499.775 448.707,500.348L448.707,535.719C446.521,536.292 444.907,538.282 444.907,540.646C444.907,543.01 446.521,545 448.707,545.574L448.707,581.268C446.521,581.841 444.907,583.831 444.907,586.195C444.907,588.559 446.521,590.549 448.707,591.123L448.707,626.493C446.521,627.066 444.907,629.057 444.907,631.421C444.907,633.785 446.521,635.775 448.707,636.348L448.707,676.58L443.067,684.498L443.067,769.876L443.034,769.875C440.979,769.83 438.925,769.767 436.871,769.684C432.789,769.519 428.71,769.277 424.637,768.957C415.038,768.202 405.474,767.017 395.982,765.4C386.991,763.869 378.067,761.951 369.241,759.652C360.315,757.327 351.49,754.613 342.8,751.519C331.669,747.557 320.761,742.972 310.14,737.797C299.383,732.555 288.923,726.707 278.822,720.293C268.499,713.737 258.551,706.591 249.043,698.902C239.462,691.154 230.326,682.856 221.695,674.063C213.315,665.526 205.41,656.521 198.031,647.104C190.708,637.759 183.903,628.008 177.659,617.909C171.554,608.034 165.986,597.827 160.992,587.347C156.064,577.005 151.694,566.397 147.91,555.584C144.93,547.066 142.313,538.422 140.069,529.681C137.863,521.086 136.017,512.398 134.537,503.648C132.974,494.403 131.819,485.089 131.073,475.743C130.762,471.842 130.522,467.935 130.353,464.025C130.266,462.016 130.199,460.006 130.149,457.996L130.147,457.904L216.473,457.904L223.381,451.381L263.541,451.381ZM490.725,451.381C491.382,453.434 493.307,454.922 495.577,454.922C497.847,454.922 499.772,453.434 500.429,451.381L535.951,451.381C536.608,453.434 538.533,454.922 540.803,454.922C543.073,454.922 544.998,453.434 545.655,451.381L581.5,451.381C582.157,453.434 584.082,454.922 586.352,454.922C588.622,454.922 590.547,453.434 591.204,451.381L626.725,451.381C627.382,453.434 629.307,454.922 631.577,454.922C633.847,454.922 635.773,453.434 636.43,451.381L676.619,451.381L683.527,457.904L769.853,457.904L769.851,457.996C769.801,460.006 769.734,462.016 769.647,464.025C769.478,467.935 769.238,471.842 768.927,475.743C768.181,485.089 767.026,494.403 765.463,503.648C763.983,512.398 762.137,521.086 759.931,529.681C757.687,538.422 755.07,547.066 752.09,555.584C748.306,566.397 743.936,577.005 739.008,587.347C734.014,597.827 728.446,608.034 722.341,617.909C716.097,628.008 709.292,637.759 701.969,647.104C694.59,656.521 686.685,665.526 678.305,674.063C669.674,682.856 660.538,691.154 650.957,698.902C641.449,706.591 631.501,713.737 621.178,720.293C611.077,726.707 600.617,732.555 589.86,737.797C579.239,742.972 568.331,747.557 557.2,751.519C548.51,754.613 539.685,757.327 530.759,759.652C521.933,761.951 513.009,763.869 504.018,765.4C494.526,767.017 484.962,768.202 475.363,768.957C471.29,769.277 467.211,769.519 463.129,769.684C461.075,769.767 459.021,769.83 456.966,769.875L456.933,769.876L456.933,684.498L451.293,678.525L451.293,636.348C453.479,635.775 455.093,633.785 455.093,631.421C455.093,629.057 453.479,627.066 451.293,626.493L451.293,591.123C453.479,590.549 455.093,588.559 455.093,586.195C455.093,583.831 453.479,581.841 451.293,581.268L451.293,545.574C453.479,545 455.093,543.01 455.093,540.646C455.093,538.282 453.479,536.292 451.293,535.719L451.293,500.348C453.479,499.775 455.093,497.785 455.093,495.421C455.093,493.056 453.479,491.066 451.293,490.493L451.293,451.381L490.725,451.381ZM456.933,217.444L456.933,130.124L456.966,130.125C458.978,130.169 460.99,130.23 463.001,130.311C466.914,130.467 470.824,130.695 474.729,130.994C484.124,131.714 493.488,132.847 502.783,134.392C511.582,135.855 520.318,137.688 528.962,139.886C537.71,142.109 546.363,144.707 554.89,147.668C565.714,151.428 576.334,155.774 586.689,160.68C597.182,165.651 607.403,171.196 617.293,177.279C627.407,183.5 637.174,190.284 646.537,197.587C655.97,204.945 664.992,212.83 673.549,221.191C682.447,229.887 690.841,239.097 698.675,248.763C706.45,258.356 713.673,268.397 720.293,278.822C726.772,289.025 732.673,299.596 737.956,310.467C743.156,321.168 747.755,332.161 751.724,343.377C754.815,352.113 757.523,360.986 759.838,369.959C762.117,378.793 764.015,387.725 765.525,396.723C767.12,406.222 768.284,415.794 769.016,425.398C769.326,429.474 769.559,433.555 769.714,437.64C769.794,439.738 769.853,441.836 769.893,443.935L769.895,444.039L683.527,444.039L677.095,448.619L636.526,448.619C635.982,446.391 633.972,444.735 631.577,444.735C629.183,444.735 627.172,446.391 626.629,448.619L591.3,448.619C590.757,446.391 588.746,444.735 586.352,444.735C583.957,444.735 581.947,446.391 581.403,448.619L545.751,448.619C545.208,446.391 543.197,444.735 540.803,444.735C538.409,444.735 536.398,446.391 535.854,448.619L500.526,448.619C499.982,446.391 497.971,444.735 495.577,444.735C493.183,444.735 491.172,446.391 490.629,448.619L451.293,448.619L451.293,409.165C453.479,408.591 455.093,406.601 455.093,404.237C455.093,401.873 453.479,399.883 451.293,399.31L451.293,363.939C453.479,363.366 455.093,361.376 455.093,359.012C455.093,356.647 453.479,354.657 451.293,354.084L451.293,318.39C453.479,317.817 455.093,315.827 455.093,313.463C455.093,311.098 453.479,309.108 451.293,308.535L451.293,273.164C453.479,272.591 455.093,270.601 455.093,268.237C455.093,265.873 453.479,263.883 451.293,263.309L451.293,225.362L456.933,217.444ZM443.034,130.125L443.067,130.124L443.067,217.444L448.707,223.417L448.707,263.309C446.521,263.883 444.907,265.873 444.907,268.237C444.907,270.601 446.521,272.591 448.707,273.164L448.707,308.535C446.521,309.108 444.907,311.098 444.907,313.463C444.907,315.827 446.521,317.817 448.707,318.39L448.707,354.084C446.521,354.657 444.907,356.647 444.907,359.012C444.907,361.376 446.521,363.366 448.707,363.939L448.707,399.31C446.521,399.883 444.907,401.873 444.907,404.237C444.907,406.601 446.521,408.591 448.707,409.165L448.707,448.619L409.342,448.619C408.799,446.391 406.788,444.735 404.394,444.735C402,444.735 399.989,446.391 399.445,448.619L364.117,448.619C363.573,446.391 361.562,444.735 359.168,444.735C356.774,444.735 354.763,446.391 354.22,448.619L318.568,448.619C318.024,446.391 316.013,444.735 313.619,444.735C311.225,444.735 309.214,446.391 308.671,448.619L273.342,448.619C272.798,446.391 270.788,444.735 268.394,444.735C265.999,444.735 263.989,446.391 263.445,448.619L222.905,448.619L216.473,444.039L130.105,444.039L130.107,443.935C130.147,441.836 130.206,439.738 130.286,437.64C130.441,433.555 130.674,429.474 130.984,425.398C131.716,415.794 132.88,406.222 134.475,396.723C135.985,387.725 137.883,378.793 140.162,369.959C142.477,360.986 145.185,352.113 148.276,343.377C152.245,332.161 156.844,321.168 162.044,310.467C167.327,299.596 173.228,289.025 179.707,278.822C186.327,268.397 193.55,258.356 201.325,248.763C209.159,239.097 217.553,229.887 226.451,221.191C235.008,212.83 244.03,204.945 253.463,197.587C262.826,190.284 272.593,183.5 282.707,177.279C292.597,171.196 302.818,165.651 313.311,160.68C323.666,155.774 334.286,151.428 345.11,147.668C353.637,144.707 362.29,142.109 371.038,139.886C379.682,137.688 388.418,135.855 397.217,134.392C406.512,132.847 415.876,131.714 425.271,130.994C429.176,130.695 433.086,130.467 436.999,130.311C439.01,130.23 441.022,130.169 443.034,130.125Z"/>
</svg>
