<?xml version="1.0" encoding="UTF-8" standalone="no"?>
<!DOCTYPE svg PUBLIC "-//W3C//DTD SVG 1.1//EN" "http://www.w3.org/Graphics/SVG/1.1/DTD/svg11.dtd">
<svg width="100%" height="100%" viewBox="0 0 503 503" version="1.1" xmlns="http://www.w3.org/2000/svg" xmlns:xlink="http://www.w3.org/1999/xlink" xml:space="preserve" xmlns:serif="http://www.serif.com/" style="fill-rule:evenodd;clip-rule:evenodd;stroke-linejoin:round;stroke-miterlimit:2;">
    <rect x="0" y="0" width="503" height="503" style="fill:white;"/>
    <path d="M109.269,62.103L111.113,188.646L0,300.064L0,503L503,503L503,227.604L345.327,153.644L298.795,36.875L241.673,5.918L169.129,5.918L109.269,62.103Z" style="fill:rgb(140,150,62);"/>
    <path d="M153.644,178.218C153.644,178.218 164.49,188.344 207.995,188.344C251.5,188.344 308.819,163.615 308.819,163.615C308.819,163.615 292.88,298.254 243.021,298.254C172.581,298.254 153.644,178.218 153.644,178.218Z" style="fill:rgb(254,241,0);"/>
    <g transform="matrix(0.922366,0,0,0.922366,26.4565,24.1742)">
        <path d="M233.256,92.815C142.81,92.815 69.379,166.246 69.379,256.693C69.379,347.139 142.81,420.57 233.256,420.57C323.702,420.57 397.133,347.139 397.133,256.693C397.133,166.246 323.702,92.815 233.256,92.815ZM233.256,95.526C322.207,95.526 394.423,167.742 394.423,256.693C394.423,345.643 322.207,417.859 233.256,417.859C144.306,417.859 72.09,345.643 72.09,256.693C72.09,167.742 144.306,95.526 233.256,95.526Z" style="fill:white;"/>
    </g>
    <g transform="matrix(1.23259,0,0,1.23259,-45.9049,-55.4577)">
        <path d="M233.256,93.157C142.998,93.157 69.72,166.435 69.72,256.693C69.72,346.95 142.998,420.229 233.256,420.229C323.514,420.229 396.792,346.95 396.792,256.693C396.792,166.435 323.514,93.157 233.256,93.157ZM233.256,95.185C322.395,95.185 394.764,167.554 394.764,256.693C394.764,345.831 322.395,418.2 233.256,418.2C144.118,418.2 71.749,345.831 71.749,256.693C71.749,167.554 144.118,95.185 233.256,95.185Z" style="fill:white;"/>
    </g>
    <g transform="matrix(1.54435,0,0,1.54435,-118.625,-135.484)">
        <path d="M233.256,93.361C143.111,93.361 69.925,166.548 69.925,256.693C69.925,346.838 143.111,420.024 233.256,420.024C323.401,420.024 396.588,346.838 396.588,256.693C396.588,166.548 323.401,93.361 233.256,93.361ZM233.256,94.98C322.508,94.98 394.969,167.441 394.969,256.693C394.969,345.944 322.508,418.405 233.256,418.405C144.005,418.405 71.544,345.944 71.544,256.693C71.544,167.441 144.005,94.98 233.256,94.98Z" style="fill:white;"/>
    </g>
    <g transform="matrix(1.85192,0,0,1.85192,-190.367,-214.434)">
        <path d="M233.256,93.496C143.185,93.496 70.059,166.622 70.059,256.693C70.059,346.763 143.185,419.889 233.256,419.889C323.327,419.889 396.453,346.763 396.453,256.693C396.453,166.622 323.327,93.496 233.256,93.496ZM233.256,94.846C322.582,94.846 395.103,167.367 395.103,256.693C395.103,346.018 322.582,418.539 233.256,418.539C143.931,418.539 71.409,346.018 71.409,256.693C71.409,167.367 143.931,94.846 233.256,94.846Z" style="fill:white;"/>
    </g>
    <g transform="matrix(0.615489,0,0,0.615489,98.0374,102.947)">
        <path d="M233.256,92.14C142.437,92.14 68.703,165.873 68.703,256.693C68.703,347.512 142.437,421.245 233.256,421.245C324.075,421.245 397.809,347.512 397.809,256.693C397.809,165.873 324.075,92.14 233.256,92.14ZM233.256,96.202C321.834,96.202 393.747,168.115 393.747,256.693C393.747,345.27 321.834,417.183 233.256,417.183C144.679,417.183 72.765,345.27 72.765,256.693C72.765,168.115 144.679,96.202 233.256,96.202Z" style="fill:white;"/>
    </g>
    <g transform="matrix(0.30018,0,0,0.30018,171.585,183.885)">
        <path d="M233.256,90.006C141.26,90.006 66.57,164.696 66.57,256.693C66.57,348.689 141.26,423.379 233.256,423.379C325.253,423.379 399.942,348.689 399.942,256.693C399.942,164.696 325.253,90.006 233.256,90.006ZM233.256,98.335C320.656,98.335 391.614,169.293 391.614,256.693C391.614,344.093 320.656,415.05 233.256,415.05C145.856,415.05 74.899,344.093 74.899,256.693C74.899,169.293 145.856,98.335 233.256,98.335Z" style="fill:white;"/>
    </g>
    <g transform="matrix(2.09778,0,0,2.09778,-227.337,-288.805)">
        <path d="M221.699,267.614L219.933,267.614L219.933,259.479C219.272,260.222 218.509,260.767 217.644,261.115L217.644,259.157C218.135,258.957 218.645,258.6 219.172,258.085C219.7,257.571 220.066,256.978 220.271,256.307L221.699,256.307L221.699,267.614Z" style="fill-rule:nonzero;"/>
        <path d="M227.337,256.307C228.234,256.307 228.958,256.733 229.511,257.586C230.064,258.439 230.341,259.93 230.341,262.06C230.341,264.185 230.064,265.674 229.511,266.527C228.958,267.379 228.236,267.806 227.345,267.806C226.449,267.806 225.724,267.383 225.171,266.538C224.618,265.693 224.342,264.193 224.342,262.037C224.342,259.922 224.618,258.439 225.171,257.586C225.724,256.733 226.446,256.307 227.337,256.307ZM227.337,258.097C226.989,258.097 226.711,258.327 226.504,258.788C226.297,259.249 226.193,260.34 226.193,262.06C226.193,263.781 226.297,264.87 226.504,265.329C226.711,265.787 226.989,266.016 227.337,266.016C227.691,266.016 227.97,265.786 228.175,265.325C228.38,264.864 228.482,263.776 228.482,262.06C228.482,260.34 228.38,259.249 228.175,258.788C227.97,258.327 227.691,258.097 227.337,258.097Z" style="fill-rule:nonzero;"/>
    </g>
    <g transform="matrix(2.09778,0,0,2.09778,-147.7,-288.805)">
        <path d="M217.206,265.01L218.919,264.779C219.001,265.614 219.334,266.031 219.917,266.031C220.312,266.031 220.634,265.823 220.885,265.405C221.136,264.988 221.298,264.142 221.369,262.867C221.149,263.179 220.901,263.415 220.624,263.573C220.348,263.732 220.04,263.811 219.702,263.811C219.001,263.811 218.38,263.476 217.84,262.805C217.299,262.134 217.029,261.243 217.029,260.132C217.029,258.944 217.314,258.01 217.882,257.329C218.45,256.648 219.152,256.307 219.987,256.307C220.919,256.307 221.687,256.746 222.291,257.624C222.895,258.503 223.197,259.958 223.197,261.991C223.197,264.06 222.882,265.547 222.253,266.454C221.623,267.36 220.806,267.813 219.802,267.813C219.106,267.813 218.531,267.584 218.078,267.126C217.625,266.668 217.334,265.962 217.206,265.01ZM221.216,260.294C221.216,259.587 221.082,259.044 220.816,258.665C220.55,258.286 220.248,258.097 219.91,258.097C219.582,258.097 219.309,258.253 219.092,258.565C218.874,258.878 218.765,259.397 218.765,260.125C218.765,260.852 218.884,261.384 219.122,261.722C219.361,262.06 219.654,262.229 220.002,262.229C220.335,262.229 220.62,262.068 220.858,261.745C221.097,261.423 221.216,260.939 221.216,260.294Z" style="fill-rule:nonzero;"/>
    </g>
    <g transform="matrix(2.09778,0,0,2.09778,-294.182,-288.805)">
        <path d="M217.206,265.01L218.919,264.779C219.001,265.614 219.334,266.031 219.917,266.031C220.312,266.031 220.634,265.823 220.885,265.405C221.136,264.988 221.298,264.142 221.369,262.867C221.149,263.179 220.901,263.415 220.624,263.573C220.348,263.732 220.04,263.811 219.702,263.811C219.001,263.811 218.38,263.476 217.84,262.805C217.299,262.134 217.029,261.243 217.029,260.132C217.029,258.944 217.314,258.01 217.882,257.329C218.45,256.648 219.152,256.307 219.987,256.307C220.919,256.307 221.687,256.746 222.291,257.624C222.895,258.503 223.197,259.958 223.197,261.991C223.197,264.06 222.882,265.547 222.253,266.454C221.623,267.36 220.806,267.813 219.802,267.813C219.106,267.813 218.531,267.584 218.078,267.126C217.625,266.668 217.334,265.962 217.206,265.01ZM221.216,260.294C221.216,259.587 221.082,259.044 220.816,258.665C220.55,258.286 220.248,258.097 219.91,258.097C219.582,258.097 219.309,258.253 219.092,258.565C218.874,258.878 218.765,259.397 218.765,260.125C218.765,260.852 218.884,261.384 219.122,261.722C219.361,262.06 219.654,262.229 220.002,262.229C220.335,262.229 220.62,262.068 220.858,261.745C221.097,261.423 221.216,260.939 221.216,260.294Z" style="fill-rule:nonzero;"/>
    </g>
    <g transform="matrix(2.09778,0,0,2.09778,-221.115,-362.471)">
        <path d="M217.206,265.01L218.919,264.779C219.001,265.614 219.334,266.031 219.917,266.031C220.312,266.031 220.634,265.823 220.885,265.405C221.136,264.988 221.298,264.142 221.369,262.867C221.149,263.179 220.901,263.415 220.624,263.573C220.348,263.732 220.04,263.811 219.702,263.811C219.001,263.811 218.38,263.476 217.84,262.805C217.299,262.134 217.029,261.243 217.029,260.132C217.029,258.944 217.314,258.01 217.882,257.329C218.45,256.648 219.152,256.307 219.987,256.307C220.919,256.307 221.687,256.746 222.291,257.624C222.895,258.503 223.197,259.958 223.197,261.991C223.197,264.06 222.882,265.547 222.253,266.454C221.623,267.36 220.806,267.813 219.802,267.813C219.106,267.813 218.531,267.584 218.078,267.126C217.625,266.668 217.334,265.962 217.206,265.01ZM221.216,260.294C221.216,259.587 221.082,259.044 220.816,258.665C220.55,258.286 220.248,258.097 219.91,258.097C219.582,258.097 219.309,258.253 219.092,258.565C218.874,258.878 218.765,259.397 218.765,260.125C218.765,260.852 218.884,261.384 219.122,261.722C219.361,262.06 219.654,262.229 220.002,262.229C220.335,262.229 220.62,262.068 220.858,261.745C221.097,261.423 221.216,260.939 221.216,260.294Z" style="fill-rule:nonzero;"/>
    </g>
    <g transform="matrix(2.09778,0,0,2.09778,-221.115,-216.705)">
        <path d="M217.206,265.01L218.919,264.779C219.001,265.614 219.334,266.031 219.917,266.031C220.312,266.031 220.634,265.823 220.885,265.405C221.136,264.988 221.298,264.142 221.369,262.867C221.149,263.179 220.901,263.415 220.624,263.573C220.348,263.732 220.04,263.811 219.702,263.811C219.001,263.811 218.38,263.476 217.84,262.805C217.299,262.134 217.029,261.243 217.029,260.132C217.029,258.944 217.314,258.01 217.882,257.329C218.45,256.648 219.152,256.307 219.987,256.307C220.919,256.307 221.687,256.746 222.291,257.624C222.895,258.503 223.197,259.958 223.197,261.991C223.197,264.06 222.882,265.547 222.253,266.454C221.623,267.36 220.806,267.813 219.802,267.813C219.106,267.813 218.531,267.584 218.078,267.126C217.625,266.668 217.334,265.962 217.206,265.01ZM221.216,260.294C221.216,259.587 221.082,259.044 220.816,258.665C220.55,258.286 220.248,258.097 219.91,258.097C219.582,258.097 219.309,258.253 219.092,258.565C218.874,258.878 218.765,259.397 218.765,260.125C218.765,260.852 218.884,261.384 219.122,261.722C219.361,262.06 219.654,262.229 220.002,262.229C220.335,262.229 220.62,262.068 220.858,261.745C221.097,261.423 221.216,260.939 221.216,260.294Z" style="fill-rule:nonzero;"/>
    </g>
    <g transform="matrix(2.09778,0,0,2.09778,-96.6009,-288.805)">
        <path d="M218.696,261.538C218.261,261.313 217.933,261.005 217.713,260.616C217.493,260.227 217.383,259.758 217.383,259.211C217.383,258.325 217.634,257.619 218.135,257.094C218.637,256.569 219.313,256.307 220.163,256.307C221.065,256.307 221.751,256.587 222.222,257.148C222.693,257.709 222.928,258.391 222.928,259.195C222.928,259.743 222.815,260.218 222.587,260.62C222.359,261.022 222.048,261.328 221.653,261.538C222.181,261.794 222.575,262.154 222.836,262.617C223.097,263.081 223.228,263.65 223.228,264.326C223.228,265.023 223.099,265.637 222.84,266.17C222.582,266.702 222.224,267.109 221.769,267.391C221.313,267.673 220.801,267.813 220.232,267.813C219.341,267.813 218.605,267.505 218.024,266.888C217.443,266.271 217.152,265.44 217.152,264.395C217.152,263.719 217.285,263.138 217.552,262.652C217.818,262.165 218.199,261.794 218.696,261.538ZM219.057,259.364C219.057,259.805 219.161,260.142 219.368,260.378C219.576,260.614 219.838,260.731 220.156,260.731C220.478,260.731 220.744,260.614 220.954,260.378C221.164,260.142 221.269,259.805 221.269,259.364C221.269,258.939 221.166,258.609 220.958,258.373C220.751,258.138 220.491,258.02 220.179,258.02C219.851,258.02 219.582,258.139 219.372,258.377C219.162,258.615 219.057,258.944 219.057,259.364ZM218.896,264.188C218.896,264.792 219.024,265.258 219.28,265.586C219.536,265.914 219.843,266.077 220.202,266.077C220.56,266.077 220.861,265.921 221.104,265.609C221.347,265.297 221.469,264.828 221.469,264.203C221.469,263.666 221.345,263.241 221.097,262.928C220.848,262.616 220.542,262.46 220.179,262.46C219.82,262.46 219.517,262.617 219.268,262.932C219.02,263.247 218.896,263.666 218.896,264.188Z" style="fill-rule:nonzero;"/>
    </g>
    <g transform="matrix(2.09778,0,0,2.09778,-344.786,-288.805)">
        <path d="M218.696,261.538C218.261,261.313 217.933,261.005 217.713,260.616C217.493,260.227 217.383,259.758 217.383,259.211C217.383,258.325 217.634,257.619 218.135,257.094C218.637,256.569 219.313,256.307 220.163,256.307C221.065,256.307 221.751,256.587 222.222,257.148C222.693,257.709 222.928,258.391 222.928,259.195C222.928,259.743 222.815,260.218 222.587,260.62C222.359,261.022 222.048,261.328 221.653,261.538C222.181,261.794 222.575,262.154 222.836,262.617C223.097,263.081 223.228,263.65 223.228,264.326C223.228,265.023 223.099,265.637 222.84,266.17C222.582,266.702 222.224,267.109 221.769,267.391C221.313,267.673 220.801,267.813 220.232,267.813C219.341,267.813 218.605,267.505 218.024,266.888C217.443,266.271 217.152,265.44 217.152,264.395C217.152,263.719 217.285,263.138 217.552,262.652C217.818,262.165 218.199,261.794 218.696,261.538ZM219.057,259.364C219.057,259.805 219.161,260.142 219.368,260.378C219.576,260.614 219.838,260.731 220.156,260.731C220.478,260.731 220.744,260.614 220.954,260.378C221.164,260.142 221.269,259.805 221.269,259.364C221.269,258.939 221.166,258.609 220.958,258.373C220.751,258.138 220.491,258.02 220.179,258.02C219.851,258.02 219.582,258.139 219.372,258.377C219.162,258.615 219.057,258.944 219.057,259.364ZM218.896,264.188C218.896,264.792 219.024,265.258 219.28,265.586C219.536,265.914 219.843,266.077 220.202,266.077C220.56,266.077 220.861,265.921 221.104,265.609C221.347,265.297 221.469,264.828 221.469,264.203C221.469,263.666 221.345,263.241 221.097,262.928C220.848,262.616 220.542,262.46 220.179,262.46C219.82,262.46 219.517,262.617 219.268,262.932C219.02,263.247 218.896,263.666 218.896,264.188Z" style="fill-rule:nonzero;"/>
    </g>
    <g transform="matrix(2.09778,0,0,2.09778,-221.515,-165.389)">
        <path d="M218.696,261.538C218.261,261.313 217.933,261.005 217.713,260.616C217.493,260.227 217.383,259.758 217.383,259.211C217.383,258.325 217.634,257.619 218.135,257.094C218.637,256.569 219.313,256.307 220.163,256.307C221.065,256.307 221.751,256.587 222.222,257.148C222.693,257.709 222.928,258.391 222.928,259.195C222.928,259.743 222.815,260.218 222.587,260.62C222.359,261.022 222.048,261.328 221.653,261.538C222.181,261.794 222.575,262.154 222.836,262.617C223.097,263.081 223.228,263.65 223.228,264.326C223.228,265.023 223.099,265.637 222.84,266.17C222.582,266.702 222.224,267.109 221.769,267.391C221.313,267.673 220.801,267.813 220.232,267.813C219.341,267.813 218.605,267.505 218.024,266.888C217.443,266.271 217.152,265.44 217.152,264.395C217.152,263.719 217.285,263.138 217.552,262.652C217.818,262.165 218.199,261.794 218.696,261.538ZM219.057,259.364C219.057,259.805 219.161,260.142 219.368,260.378C219.576,260.614 219.838,260.731 220.156,260.731C220.478,260.731 220.744,260.614 220.954,260.378C221.164,260.142 221.269,259.805 221.269,259.364C221.269,258.939 221.166,258.609 220.958,258.373C220.751,258.138 220.491,258.02 220.179,258.02C219.851,258.02 219.582,258.139 219.372,258.377C219.162,258.615 219.057,258.944 219.057,259.364ZM218.896,264.188C218.896,264.792 219.024,265.258 219.28,265.586C219.536,265.914 219.843,266.077 220.202,266.077C220.56,266.077 220.861,265.921 221.104,265.609C221.347,265.297 221.469,264.828 221.469,264.203C221.469,263.666 221.345,263.241 221.097,262.928C220.848,262.616 220.542,262.46 220.179,262.46C219.82,262.46 219.517,262.617 219.268,262.932C219.02,263.247 218.896,263.666 218.896,264.188Z" style="fill-rule:nonzero;"/>
    </g>
    <g transform="matrix(2.09778,0,0,2.09778,-221.526,-413.907)">
        <path d="M218.696,261.538C218.261,261.313 217.933,261.005 217.713,260.616C217.493,260.227 217.383,259.758 217.383,259.211C217.383,258.325 217.634,257.619 218.135,257.094C218.637,256.569 219.313,256.307 220.163,256.307C221.065,256.307 221.751,256.587 222.222,257.148C222.693,257.709 222.928,258.391 222.928,259.195C222.928,259.743 222.815,260.218 222.587,260.62C222.359,261.022 222.048,261.328 221.653,261.538C222.181,261.794 222.575,262.154 222.836,262.617C223.097,263.081 223.228,263.65 223.228,264.326C223.228,265.023 223.099,265.637 222.84,266.17C222.582,266.702 222.224,267.109 221.769,267.391C221.313,267.673 220.801,267.813 220.232,267.813C219.341,267.813 218.605,267.505 218.024,266.888C217.443,266.271 217.152,265.44 217.152,264.395C217.152,263.719 217.285,263.138 217.552,262.652C217.818,262.165 218.199,261.794 218.696,261.538ZM219.057,259.364C219.057,259.805 219.161,260.142 219.368,260.378C219.576,260.614 219.838,260.731 220.156,260.731C220.478,260.731 220.744,260.614 220.954,260.378C221.164,260.142 221.269,259.805 221.269,259.364C221.269,258.939 221.166,258.609 220.958,258.373C220.751,258.138 220.491,258.02 220.179,258.02C219.851,258.02 219.582,258.139 219.372,258.377C219.162,258.615 219.057,258.944 219.057,259.364ZM218.896,264.188C218.896,264.792 219.024,265.258 219.28,265.586C219.536,265.914 219.843,266.077 220.202,266.077C220.56,266.077 220.861,265.921 221.104,265.609C221.347,265.297 221.469,264.828 221.469,264.203C221.469,263.666 221.345,263.241 221.097,262.928C220.848,262.616 220.542,262.46 220.179,262.46C219.82,262.46 219.517,262.617 219.268,262.932C219.02,263.247 218.896,263.666 218.896,264.188Z" style="fill-rule:nonzero;"/>
    </g>
    <g transform="matrix(2.09778,0,0,2.09778,-47.334,-288.805)">
        <path d="M217.168,258.512L217.168,256.507L223.22,256.507L223.22,258.074C222.724,258.673 222.221,259.524 221.711,260.628C221.202,261.731 220.807,262.914 220.528,264.176C220.249,265.439 220.11,266.584 220.11,267.614L218.404,267.614C218.445,266.016 218.712,264.421 219.203,262.828C219.695,261.236 220.358,259.797 221.193,258.512L217.168,258.512Z" style="fill-rule:nonzero;"/>
    </g>
    <g transform="matrix(2.09778,0,0,2.09778,-221.405,-115.029)">
        <path d="M217.168,258.512L217.168,256.507L223.22,256.507L223.22,258.074C222.724,258.673 222.221,259.524 221.711,260.628C221.202,261.731 220.807,262.914 220.528,264.176C220.249,265.439 220.11,266.584 220.11,267.614L218.404,267.614C218.445,266.016 218.712,264.421 219.203,262.828C219.695,261.236 220.358,259.797 221.193,258.512L217.168,258.512Z" style="fill-rule:nonzero;"/>
    </g>
    <g transform="matrix(2.09778,0,0,2.09778,-221.405,-64.6112)">
        <path d="M223.167,259.111L221.454,259.341C221.372,258.501 221.036,258.081 220.447,258.081C220.063,258.081 219.745,258.291 219.491,258.711C219.238,259.131 219.078,259.979 219.011,261.254C219.231,260.936 219.477,260.698 219.748,260.539C220.02,260.381 220.319,260.301 220.647,260.301C221.369,260.301 221.999,260.638 222.537,261.311C223.074,261.985 223.343,262.88 223.343,263.996C223.343,265.184 223.059,266.116 222.491,266.792C221.922,267.468 221.218,267.806 220.378,267.806C219.457,267.806 218.692,267.367 218.086,266.488C217.479,265.61 217.175,264.155 217.175,262.122C217.175,260.058 217.49,258.573 218.12,257.667C218.75,256.76 219.559,256.307 220.547,256.307C221.228,256.307 221.803,256.539 222.272,257.002C222.74,257.466 223.039,258.168 223.167,259.111ZM219.165,263.819C219.165,264.531 219.297,265.075 219.56,265.451C219.824,265.828 220.125,266.016 220.463,266.016C220.791,266.016 221.063,265.86 221.281,265.547C221.499,265.235 221.607,264.723 221.607,264.011C221.607,263.274 221.49,262.736 221.254,262.398C221.018,262.06 220.727,261.891 220.378,261.891C220.04,261.891 219.754,262.053 219.518,262.375C219.283,262.698 219.165,263.179 219.165,263.819Z" style="fill-rule:nonzero;"/>
    </g>
    <g transform="matrix(2.09778,0,0,2.09778,-221.559,-463.228)">
        <path d="M217.168,258.512L217.168,256.507L223.22,256.507L223.22,258.074C222.724,258.673 222.221,259.524 221.711,260.628C221.202,261.731 220.807,262.914 220.528,264.176C220.249,265.439 220.11,266.584 220.11,267.614L218.404,267.614C218.445,266.016 218.712,264.421 219.203,262.828C219.695,261.236 220.358,259.797 221.193,258.512L217.168,258.512Z" style="fill-rule:nonzero;"/>
    </g>
    <g transform="matrix(2.09778,0,0,2.09778,-221.559,-514.189)">
        <path d="M223.167,259.111L221.454,259.341C221.372,258.501 221.036,258.081 220.447,258.081C220.063,258.081 219.745,258.291 219.491,258.711C219.238,259.131 219.078,259.979 219.011,261.254C219.231,260.936 219.477,260.698 219.748,260.539C220.02,260.381 220.319,260.301 220.647,260.301C221.369,260.301 221.999,260.638 222.537,261.311C223.074,261.985 223.343,262.88 223.343,263.996C223.343,265.184 223.059,266.116 222.491,266.792C221.922,267.468 221.218,267.806 220.378,267.806C219.457,267.806 218.692,267.367 218.086,266.488C217.479,265.61 217.175,264.155 217.175,262.122C217.175,260.058 217.49,258.573 218.12,257.667C218.75,256.76 219.559,256.307 220.547,256.307C221.228,256.307 221.803,256.539 222.272,257.002C222.74,257.466 223.039,258.168 223.167,259.111ZM219.165,263.819C219.165,264.531 219.297,265.075 219.56,265.451C219.824,265.828 220.125,266.016 220.463,266.016C220.791,266.016 221.063,265.86 221.281,265.547C221.499,265.235 221.607,264.723 221.607,264.011C221.607,263.274 221.49,262.736 221.254,262.398C221.018,262.06 220.727,261.891 220.378,261.891C220.04,261.891 219.754,262.053 219.518,262.375C219.283,262.698 219.165,263.179 219.165,263.819Z" style="fill-rule:nonzero;"/>
    </g>
    <g transform="matrix(2.09778,0,0,2.09778,-394.01,-288.805)">
        <path d="M217.168,258.512L217.168,256.507L223.22,256.507L223.22,258.074C222.724,258.673 222.221,259.524 221.711,260.628C221.202,261.731 220.807,262.914 220.528,264.176C220.249,265.439 220.11,266.584 220.11,267.614L218.404,267.614C218.445,266.016 218.712,264.421 219.203,262.828C219.695,261.236 220.358,259.797 221.193,258.512L217.168,258.512Z" style="fill-rule:nonzero;"/>
    </g>
    <g transform="matrix(2.09778,0,0,2.09778,4.31573,-288.805)">
        <path d="M223.167,259.111L221.454,259.341C221.372,258.501 221.036,258.081 220.447,258.081C220.063,258.081 219.745,258.291 219.491,258.711C219.238,259.131 219.078,259.979 219.011,261.254C219.231,260.936 219.477,260.698 219.748,260.539C220.02,260.381 220.319,260.301 220.647,260.301C221.369,260.301 221.999,260.638 222.537,261.311C223.074,261.985 223.343,262.88 223.343,263.996C223.343,265.184 223.059,266.116 222.491,266.792C221.922,267.468 221.218,267.806 220.378,267.806C219.457,267.806 218.692,267.367 218.086,266.488C217.479,265.61 217.175,264.155 217.175,262.122C217.175,260.058 217.49,258.573 218.12,257.667C218.75,256.76 219.559,256.307 220.547,256.307C221.228,256.307 221.803,256.539 222.272,257.002C222.74,257.466 223.039,258.168 223.167,259.111ZM219.165,263.819C219.165,264.531 219.297,265.075 219.56,265.451C219.824,265.828 220.125,266.016 220.463,266.016C220.791,266.016 221.063,265.86 221.281,265.547C221.499,265.235 221.607,264.723 221.607,264.011C221.607,263.274 221.49,262.736 221.254,262.398C221.018,262.06 220.727,261.891 220.378,261.891C220.04,261.891 219.754,262.053 219.518,262.375C219.283,262.698 219.165,263.179 219.165,263.819Z" style="fill-rule:nonzero;"/>
    </g>
</svg>
